<svg width="22" height="24" viewBox="0 0 22 24" fill="none" xmlns="http://www.w3.org/2000/svg">
<path fill-rule="evenodd" clip-rule="evenodd" d="M11.43 22.8025C12.6146 20.8425 21.709 3.87362 21.709 3.62322C21.709 3.21472 19.12 0.556301 18.722 0.556301C18.3547 0.556301 13.1 4.32085 12.6209 4.92723C12.34 5.28241 12.5206 5.33096 14.1217 5.33096C15.1227 5.33096 15.9039 5.43016 15.8574 5.55139C15.7077 5.94371 10.9857 14.5832 10.949 14.532C10.7722 14.2842 6.04897 5.51797 6.04897 5.43759C6.04897 5.37897 6.8585 5.33096 7.84785 5.33096C9.43027 5.33096 9.6086 5.28241 9.32773 4.92723C8.8362 4.3052 3.58909 0.556303 3.20997 0.556303C2.81468 0.556303 0.239615 3.22931 0.239615 3.6394C0.239615 3.97204 10.2668 22.5391 10.7321 23.0677C10.998 23.3701 11.1132 23.3264 11.43 22.8025Z" fill="#F65164"/>
</svg>
